<svg id="Capa_1" data-name="Capa 1" xmlns="http://www.w3.org/2000/svg" xmlns:xlink="http://www.w3.org/1999/xlink" viewBox="0 0 500 500"><defs><style>.cls-1{fill:url(#Degradado_sin_nombre_2);}.cls-2{fill:url(#Degradado_sin_nombre_2-2);}.cls-3{fill:url(#Degradado_sin_nombre_2-3);}</style><linearGradient id="Degradado_sin_nombre_2" x1="37.47" y1="246.34" x2="373.56" y2="246.34" gradientUnits="userSpaceOnUse"><stop offset="0" stop-color="#ff00da"/><stop offset="1" stop-color="#f7931e"/></linearGradient><linearGradient id="Degradado_sin_nombre_2-2" x1="129.54" y1="222.98" x2="425.76" y2="222.98" xlink:href="#Degradado_sin_nombre_2"/><linearGradient id="Degradado_sin_nombre_2-3" x1="188.2" y1="200.45" x2="453.5" y2="200.45" xlink:href="#Degradado_sin_nombre_2"/></defs><path class="cls-1" d="M313.52,31.3c-16.08,2.2-32,4.44-47.88,7.25s-31.52,6-47,9.82-30.8,8.29-45.79,13.5a435.46,435.46,0,0,0-43.89,18l-5.33,2.56-5.25,2.72-2.64,1.35L113.14,88,108,90.83l-5,3.07-2.53,1.54-2.46,1.64c-1.63,1.11-3.28,2.18-4.9,3.31l-4.76,3.51c-1.62,1.14-3.09,2.44-4.63,3.68s-3.06,2.49-4.48,3.86-2.9,2.67-4.32,4l-4.09,4.27A98,98,0,0,0,57,138.87,72.58,72.58,0,0,0,49.17,161a69.2,69.2,0,0,0-.35,23.37l.44,2.9c.17,1,.42,1.92.62,2.88s.41,1.91.66,2.86l.8,2.83a104.66,104.66,0,0,0,4,11.08A133.54,133.54,0,0,0,66.6,227.65a225.46,225.46,0,0,0,14.07,19.13l3.81,4.58,3.9,4.51,4,4.48,4,4.42q16.25,17.55,33.57,34.36c5.76,5.62,11.58,11.19,17.41,16.79,2.9,2.85,5.83,5.48,8.75,8.22l8.76,8.15c3,2.61,6,5.2,9,7.84s5.94,5.32,9,7.8,6.13,5.1,9.19,7.64,6.24,5,9.33,7.47,6.22,5,9.4,7.39,6.38,4.77,9.56,7.18c1.6,1.19,3.17,2.42,4.8,3.58l4.88,3.45c3.27,2.29,6.48,4.66,9.76,6.93,6.66,4.4,13.18,9,20,13.24l5,3.25,2.52,1.63,2.56,1.57,10.25,6.24c3.43,2.07,6.95,4,10.39,6,1.73,1,3.45,2.06,5.2,3l5.27,2.91c3.51,1.94,7,3.91,10.58,5.76s7.07,3.82,10.65,5.65c14.29,7.41,28.85,14.35,43.56,21.16a.8.8,0,0,1-.54,1.51c-31.41-8.4-61.86-20.49-91.15-35q-21.93-11-42.84-24c-3.47-2.18-6.89-4.43-10.32-6.67l-5.15-3.37c-1.7-1.13-3.36-2.34-5.05-3.51-3.35-2.35-6.71-4.7-10.05-7.09s-6.54-4.95-9.81-7.42c-6.58-4.91-12.82-10.24-19.13-15.49-3.17-2.6-6.17-5.41-9.22-8.15s-6-5.54-9.08-8.31l-8.76-8.63c-2.9-2.88-5.9-5.75-8.69-8.65q-8.46-8.7-16.88-17.52C108,298,96.84,286,86.6,273.13l-3.82-4.84L79,263.39l-3.62-5-3.51-5.09a233.51,233.51,0,0,1-12.86-21.2,159.46,159.46,0,0,1-10-22.77,115.73,115.73,0,0,1-3.44-12l-.69-3c-.22-1-.36-2.06-.55-3.08s-.37-2-.5-3.09l-.36-3.1c-.29-2.07-.32-4.16-.45-6.24s0-4.18,0-6.26c.14-2.08.25-4.17.48-6.24l.42-3.1.21-1.55.32-1.53.65-3.06c.24-1,.39-2.05.72-3,.6-2,1.16-4,1.8-6l2.22-5.83c.82-1.91,1.74-3.77,2.61-5.67a127,127,0,0,1,13.31-21l3.9-4.86c1.37-1.56,2.77-3.08,4.16-4.63s2.87-3,4.32-4.49,2.89-3,4.45-4.36l4.6-4.2c1.57-1.36,3.18-2.67,4.78-4l2.4-2,2.48-1.88,5-3.76,5.12-3.54L109.48,76l2.63-1.66,5.29-3.28c1.79-1,3.6-2.06,5.4-3.07a243.24,243.24,0,0,1,22.28-11c1.9-.79,3.81-1.58,5.73-2.34s3.82-1.57,5.77-2.25l5.82-2.1,2.91-1,2.94-1A368.69,368.69,0,0,1,216,36.19,413.93,413.93,0,0,1,264.62,30a394.1,394.1,0,0,1,48.84-.34.8.8,0,0,1,.06,1.6Z"/><path class="cls-2" d="M358.83,64A93.19,93.19,0,0,1,345.5,86a82.7,82.7,0,0,1-19.64,17.46,74.36,74.36,0,0,1-24.81,10.14c-8.78,1.86-17.59,2.39-26.06,2.72-4.23.17-8.4.31-12.51.52s-8.16.52-12.14,1l-3,.36c-1,.12-2,.31-2.95.47l-2.94.48c-1,.18-2,.4-2.93.6-3.88.86-7.76,1.8-11.59,3-1.92.55-3.82,1.24-5.72,1.87s-3.78,1.36-5.65,2.11-3.73,1.51-5.59,2.28c-.93.4-1.84.83-2.76,1.24s-1.85.8-2.75,1.24c-3.67,1.68-7.23,3.58-10.79,5.47-1.75,1-3.52,2-5.24,3s-3.45,2.09-5.15,3.17c-3.35,2.22-6.73,4.44-9.89,6.91s-6.31,5-9.25,7.7a92.68,92.68,0,0,0-8.33,8.61,75.31,75.31,0,0,0-7,9.61,60,60,0,0,0-5.2,10.62,50.24,50.24,0,0,0-2.65,11.48,45.87,45.87,0,0,0,.29,11.87,54.65,54.65,0,0,0,3.09,11.67A88.51,88.51,0,0,0,156.39,243c1.27,1.64,2.52,3.29,3.84,4.89s2.65,3.18,4.06,4.72c2.73,3.12,5.66,6.09,8.62,9s6.06,5.74,9.16,8.53,6.34,5.45,9.58,8.1c6.45,5.33,13.16,10.37,19.88,15.38s13.57,9.91,20.42,14.8l10.28,7.34,10.23,7.41c13.65,9.78,27.08,19.82,41,28.32a137.37,137.37,0,0,0,21.26,10.82c7.17,2.8,14.43,4.45,21.32,4.12a34.5,34.5,0,0,0,10.06-1.89c.41-.13.82-.24,1.23-.38l1.2-.51c.79-.34,1.6-.64,2.39-1l2.33-1.24c.38-.22.78-.39,1.16-.64l1.12-.73c.74-.5,1.5-1,2.24-1.47L360,356.9l1.09-.82,1-.93,2.07-1.84c.69-.62,1.32-1.33,2-2s1.33-1.31,1.95-2l1.85-2.17a28.24,28.24,0,0,0,1.83-2.21A122.78,122.78,0,0,0,384.3,325a191.26,191.26,0,0,0,9.58-22.21q4.1-11.51,7.25-23.45c2.1-8,3.91-16,5.48-24.16.71-4.08,1.49-8.16,2.12-12.27l1-6.15.86-6.19c.61-4.12,1-8.27,1.51-12.41s.92-8.31,1.24-12.48c1.45-16.67,2.24-33.45,2.68-50.33a.8.8,0,0,1,1.6-.09,416.46,416.46,0,0,1,3.9,50.71c.11,4.26,0,8.51.06,12.77l-.18,6.39c-.06,2.13-.13,4.26-.26,6.39-.36,8.53-1.08,17.06-2.06,25.57s-2.34,17-4,25.48-3.83,16.86-6.42,25.18a185.13,185.13,0,0,1-9.51,24.55,128.51,128.51,0,0,1-13.87,23.1,78.3,78.3,0,0,1-20.57,19.16l-1.54,1c-.51.33-1.08.58-1.61.87l-3.28,1.69c-1.12.51-2.29.95-3.43,1.42l-1.73.69c-.59.2-1.19.36-1.79.55-1.2.35-2.39.71-3.6,1s-2.45.52-3.68.71a55.23,55.23,0,0,1-7.47.64A60.17,60.17,0,0,1,322,381.52a81.81,81.81,0,0,1-13.29-4.39,149,149,0,0,1-23.31-12.87c-7.27-4.78-14.19-9.84-21-15s-13.36-10.51-19.85-15.91l-9.74-8.11-9.64-8.2c-6.42-5.47-12.84-11-19.2-16.59-12.7-11.21-25.24-22.68-37-35.05a219.36,219.36,0,0,1-16.56-19.52,109,109,0,0,1-13-22.35l-.63-1.51c-.2-.51-.37-1-.56-1.55-.36-1-.76-2.05-1.09-3.1l-.9-3.18c-.32-1-.49-2.15-.74-3.23a55.63,55.63,0,0,1-1.2-13.28,57.17,57.17,0,0,1,1.9-13.32A75.25,75.25,0,0,1,141,171.75a83.38,83.38,0,0,1,6.77-11.52,103.17,103.17,0,0,1,8.27-10.43,128.06,128.06,0,0,1,19.65-17.67,150.79,150.79,0,0,1,47.17-23A127.94,127.94,0,0,1,235.82,106c1.09-.19,2.18-.41,3.28-.57l3.31-.45c1.1-.14,2.2-.32,3.3-.42l3.3-.29a255.13,255.13,0,0,1,25.83-.45c8.36.11,16.46.16,24.3-.91,1-.08,1.94-.32,2.91-.47l2.91-.53,2.85-.73c.94-.26,1.92-.43,2.83-.78a68.6,68.6,0,0,0,11-4.43,82.19,82.19,0,0,0,19.8-13.83,110.28,110.28,0,0,0,16-19,.82.82,0,0,1,1.12-.22A.83.83,0,0,1,358.83,64Z"/><path class="cls-3" d="M418.35,74.76a240.28,240.28,0,0,1,20,35.09,181.94,181.94,0,0,1,7.55,19,125.62,125.62,0,0,1,5,20.25c.31,1.73.48,3.5.71,5.26s.31,3.56.36,5.37a77.16,77.16,0,0,1-.32,10.93,65.86,65.86,0,0,1-2.26,11,51.93,51.93,0,0,1-4.68,10.59,48.78,48.78,0,0,1-7.17,9.27,50.74,50.74,0,0,1-9.14,7.14,58,58,0,0,1-10.18,4.84c-.86.34-1.74.61-2.61.89s-1.75.58-2.63.8c-1.76.44-3.52.91-5.28,1.24A98.86,98.86,0,0,1,397.2,218c-3.51.24-7,.44-10.45.39a195.88,195.88,0,0,1-20.51-1.23c-13.5-1.5-26.71-3.85-39.9-6.09s-26.32-4.55-39.49-6.58c-3.29-.52-6.58-1-9.88-1.45l-9.89-1.27c-6.58-.84-13.19-1.45-19.75-1.93s-13.12-.7-19.49-.5a80.4,80.4,0,0,0-9.33.77,37.2,37.2,0,0,0-8.31,2,12.3,12.3,0,0,0-5.33,3.53,5.67,5.67,0,0,0-.64,1.05c-.08.18-.2.34-.27.54s-.15.38-.21.59a10,10,0,0,0-.43,2.85,23.37,23.37,0,0,0,1.34,7.34,49.73,49.73,0,0,0,3.51,7.91,98.65,98.65,0,0,0,10.48,15.18A172.83,172.83,0,0,0,231.58,255a245.41,245.41,0,0,0,29.69,24.29,237.15,237.15,0,0,0,33.11,19.5,193.71,193.71,0,0,0,36.07,13.13c1.55.44,3.12.78,4.7,1.12l4.72,1c3.18.56,6.35,1.23,9.56,1.64,6.41,1,12.89,1.62,19.42,2a246,246,0,0,0,39.53-1.19.81.81,0,0,1,.33,1.57A171.49,171.49,0,0,1,369,325.92l-2.55.2-2.55.12c-1.7.07-3.41.2-5.12.21l-5.14,0c-1.71,0-3.42-.1-5.14-.14-3.43-.06-6.84-.44-10.28-.68-1.71-.17-3.42-.4-5.13-.61s-3.42-.42-5.12-.73A177.2,177.2,0,0,1,288.06,313a207.46,207.46,0,0,1-36.46-19.62,202.2,202.2,0,0,1-31.86-26.53A166.47,166.47,0,0,1,206.06,251a112.73,112.73,0,0,1-11.36-18.21,64.18,64.18,0,0,1-4.09-10.55,36.56,36.56,0,0,1-1.46-12.35,23.72,23.72,0,0,1,1.53-6.91c.21-.57.5-1.14.76-1.7s.62-1.1.95-1.64a18.92,18.92,0,0,1,2.27-3,12.15,12.15,0,0,1,1.31-1.28c.46-.4.9-.84,1.38-1.18a22.78,22.78,0,0,1,2.91-1.88l1.49-.76c.5-.25,1-.42,1.48-.62s1-.4,1.49-.57l1.46-.44a49.47,49.47,0,0,1,11.27-1.73,89.27,89.27,0,0,1,10.64.22,194.07,194.07,0,0,1,20.32,2.76c13.31,2.38,26.31,5.42,39.39,8s26.14,5.08,39.31,6.78a272.32,272.32,0,0,0,39.55,2.38c6.55-.13,13.06-.5,19.44-1.27a118.4,118.4,0,0,0,18.53-3.57,61.83,61.83,0,0,0,16.26-7,42.73,42.73,0,0,0,6.55-5.17,39.26,39.26,0,0,0,5.14-6.41,43.4,43.4,0,0,0,3.57-7.57,51.37,51.37,0,0,0,2.06-8.45,78.39,78.39,0,0,0,.37-18.29,138.09,138.09,0,0,0-3.05-18.86c-1.43-6.3-3.16-12.6-5.13-18.85-3.91-12.54-8.66-24.94-13.47-37.43a.81.81,0,0,1,1.42-.75Z"/></svg>